<mxfile host="app.diagrams.net" agent="Mozilla/5.0 (Macintosh; Intel Mac OS X 10.15; rv:136.0) Gecko/20100101 Firefox/136.0" version="26.2.2">
  <diagram name="Page-1" id="9c096ad6-e400-ecc8-3e38-643d2caac077">
    <mxGraphModel dx="3800.5" dy="1167" grid="1" gridSize="10" guides="1" tooltips="1" connect="1" arrows="1" fold="1" page="1" pageScale="1.5" pageWidth="1169" pageHeight="826" background="none" math="0" shadow="0">
      <root>
        <mxCell id="0" style=";html=1;" />
        <mxCell id="1" style=";html=1;" parent="0" />
        <mxCell id="3cfceab9cabfe5b9-37" style="edgeStyle=none;curved=1;html=1;startSize=10;endArrow=classic;endFill=1;endSize=10;strokeWidth=1;fontSize=12;" parent="1" source="30e23a8a0b95c500-1" target="3cfceab9cabfe5b9-11" edge="1">
          <mxGeometry relative="1" as="geometry" />
        </mxCell>
        <mxCell id="30e23a8a0b95c500-1" value="&lt;table border=&quot;1&quot; width=&quot;100%&quot; style=&quot;width: 100% ; height: 100% ; border-collapse: collapse&quot;&gt;&lt;tbody&gt;&lt;tr&gt;&lt;td colspan=&quot;2&quot; align=&quot;center&quot;&gt;&lt;font style=&quot;font-size: 12px;&quot;&gt;Dokumentacija&lt;/font&gt;&lt;/td&gt;&lt;/tr&gt;&lt;tr&gt;&lt;td align=&quot;center&quot;&gt;3&lt;/td&gt;&lt;td align=&quot;center&quot;&gt;&lt;font style=&quot;font-size: 12px;&quot;&gt;6&lt;/font&gt;&lt;/td&gt;&lt;/tr&gt;&lt;tr&gt;&lt;td align=&quot;center&quot;&gt;3&lt;/td&gt;&lt;td align=&quot;center&quot;&gt;6&lt;/td&gt;&lt;/tr&gt;&lt;/tbody&gt;&lt;/table&gt;" style="text;html=1;strokeColor=#FF0000;fillColor=#f5f5f5;overflow=fill;rounded=0;shadow=1;fontSize=12;align=center;" parent="1" vertex="1">
          <mxGeometry x="400" y="450" width="150" height="60" as="geometry" />
        </mxCell>
        <mxCell id="M4bygD5o0YZVXNEomFIM-7" style="edgeStyle=orthogonalEdgeStyle;rounded=0;orthogonalLoop=1;jettySize=auto;html=1;entryX=0;entryY=0.5;entryDx=0;entryDy=0;" edge="1" parent="1" source="3cfceab9cabfe5b9-10" target="3cfceab9cabfe5b9-15">
          <mxGeometry relative="1" as="geometry" />
        </mxCell>
        <mxCell id="3cfceab9cabfe5b9-10" value="&lt;table border=&quot;1&quot; width=&quot;100%&quot; style=&quot;width: 100% ; height: 100% ; border-collapse: collapse&quot;&gt;&lt;tbody&gt;&lt;tr&gt;&lt;td colspan=&quot;2&quot; align=&quot;center&quot;&gt;Bluetooth funkcionalnost&lt;/td&gt;&lt;/tr&gt;&lt;tr&gt;&lt;td align=&quot;center&quot;&gt;6&lt;/td&gt;&lt;td align=&quot;center&quot;&gt;30&lt;/td&gt;&lt;/tr&gt;&lt;tr&gt;&lt;td align=&quot;center&quot;&gt;12&lt;/td&gt;&lt;td align=&quot;center&quot;&gt;36&lt;/td&gt;&lt;/tr&gt;&lt;/tbody&gt;&lt;/table&gt;" style="text;html=1;strokeColor=#FF0000;fillColor=#f5f5f5;overflow=fill;rounded=0;shadow=1;fontSize=12;align=center;" parent="1" vertex="1">
          <mxGeometry x="733" y="472.0000000000001" width="150" height="60" as="geometry" />
        </mxCell>
        <mxCell id="3cfceab9cabfe5b9-38" style="edgeStyle=none;curved=1;html=1;startSize=10;endArrow=classic;endFill=1;endSize=10;strokeWidth=1;fontSize=12;entryX=0;entryY=1;entryDx=0;entryDy=0;" parent="1" source="3cfceab9cabfe5b9-11" target="3cfceab9cabfe5b9-15" edge="1">
          <mxGeometry relative="1" as="geometry" />
        </mxCell>
        <mxCell id="3cfceab9cabfe5b9-11" value="&lt;table border=&quot;1&quot; width=&quot;100%&quot; style=&quot;width: 100% ; height: 100% ; border-collapse: collapse&quot;&gt;&lt;tbody&gt;&lt;tr&gt;&lt;td colspan=&quot;2&quot; align=&quot;center&quot;&gt;Backend logika&lt;/td&gt;&lt;/tr&gt;&lt;tr&gt;&lt;td align=&quot;center&quot;&gt;6&lt;/td&gt;&lt;td align=&quot;center&quot;&gt;34&lt;/td&gt;&lt;/tr&gt;&lt;tr&gt;&lt;td align=&quot;center&quot;&gt;8&lt;/td&gt;&lt;td align=&quot;center&quot;&gt;36&lt;/td&gt;&lt;/tr&gt;&lt;/tbody&gt;&lt;/table&gt;" style="text;html=1;strokeColor=#666666;fillColor=#f5f5f5;overflow=fill;rounded=0;shadow=1;fontSize=12;align=center;" parent="1" vertex="1">
          <mxGeometry x="723" y="610" width="150" height="60" as="geometry" />
        </mxCell>
        <mxCell id="M4bygD5o0YZVXNEomFIM-5" style="edgeStyle=orthogonalEdgeStyle;rounded=0;orthogonalLoop=1;jettySize=auto;html=1;" edge="1" parent="1" source="3cfceab9cabfe5b9-15">
          <mxGeometry relative="1" as="geometry">
            <mxPoint x="1293" y="502" as="targetPoint" />
          </mxGeometry>
        </mxCell>
        <mxCell id="3cfceab9cabfe5b9-15" value="&lt;table border=&quot;1&quot; width=&quot;100%&quot; style=&quot;width: 100% ; height: 100% ; border-collapse: collapse&quot;&gt;&lt;tbody&gt;&lt;tr&gt;&lt;td colspan=&quot;2&quot; align=&quot;center&quot;&gt;Testiranje&lt;/td&gt;&lt;/tr&gt;&lt;tr&gt;&lt;td align=&quot;center&quot;&gt;36&lt;/td&gt;&lt;td align=&quot;center&quot;&gt;43&lt;/td&gt;&lt;/tr&gt;&lt;tr&gt;&lt;td align=&quot;center&quot;&gt;36&lt;/td&gt;&lt;td align=&quot;center&quot;&gt;43&lt;/td&gt;&lt;/tr&gt;&lt;/tbody&gt;&lt;/table&gt;" style="text;html=1;strokeColor=#666666;fillColor=#f5f5f5;overflow=fill;rounded=0;shadow=1;fontSize=12;align=center;" parent="1" vertex="1">
          <mxGeometry x="1023" y="472" width="150" height="60" as="geometry" />
        </mxCell>
        <mxCell id="M4bygD5o0YZVXNEomFIM-2" style="edgeStyle=none;curved=1;html=1;startSize=10;endArrow=classic;endFill=1;endSize=10;strokeWidth=1;fontSize=12;entryX=0;entryY=0.5;entryDx=0;entryDy=0;exitX=1;exitY=0.5;exitDx=0;exitDy=0;" edge="1" parent="1" source="30e23a8a0b95c500-1" target="3cfceab9cabfe5b9-10">
          <mxGeometry relative="1" as="geometry">
            <mxPoint x="553" y="500" as="sourcePoint" />
            <mxPoint x="711" y="819" as="targetPoint" />
          </mxGeometry>
        </mxCell>
        <mxCell id="M4bygD5o0YZVXNEomFIM-3" value="&lt;table border=&quot;1&quot; width=&quot;100%&quot; style=&quot;width: 100% ; height: 100% ; border-collapse: collapse&quot;&gt;&lt;tbody&gt;&lt;tr&gt;&lt;td colspan=&quot;2&quot; align=&quot;center&quot;&gt;&lt;font style=&quot;font-size: 12px&quot;&gt;UI/UX Razvoj&lt;/font&gt;&lt;/td&gt;&lt;/tr&gt;&lt;tr&gt;&lt;td align=&quot;center&quot;&gt;6&lt;/td&gt;&lt;td align=&quot;center&quot;&gt;36&lt;/td&gt;&lt;/tr&gt;&lt;tr&gt;&lt;td align=&quot;center&quot;&gt;6&lt;/td&gt;&lt;td align=&quot;center&quot;&gt;36&lt;/td&gt;&lt;/tr&gt;&lt;/tbody&gt;&lt;/table&gt;" style="text;html=1;strokeColor=#FF0000;fillColor=#f5f5f5;overflow=fill;rounded=0;shadow=1;fontSize=12;align=center;" vertex="1" parent="1">
          <mxGeometry x="743" y="290.0000000000001" width="150" height="60" as="geometry" />
        </mxCell>
        <mxCell id="M4bygD5o0YZVXNEomFIM-4" style="edgeStyle=none;curved=1;html=1;startSize=10;endArrow=classic;endFill=1;endSize=10;strokeWidth=1;fontSize=12;entryX=0;entryY=0.5;entryDx=0;entryDy=0;exitX=1;exitY=0;exitDx=0;exitDy=0;" edge="1" parent="1" source="30e23a8a0b95c500-1" target="M4bygD5o0YZVXNEomFIM-3">
          <mxGeometry relative="1" as="geometry">
            <mxPoint x="513" y="470" as="sourcePoint" />
            <mxPoint x="730" y="402" as="targetPoint" />
          </mxGeometry>
        </mxCell>
        <mxCell id="M4bygD5o0YZVXNEomFIM-6" value="&lt;table border=&quot;1&quot; width=&quot;100%&quot; style=&quot;width: 100% ; height: 100% ; border-collapse: collapse&quot;&gt;&lt;tbody&gt;&lt;tr&gt;&lt;td colspan=&quot;2&quot; align=&quot;center&quot;&gt;Objavljivanje&lt;/td&gt;&lt;/tr&gt;&lt;tr&gt;&lt;td align=&quot;center&quot;&gt;43&lt;/td&gt;&lt;td align=&quot;center&quot;&gt;48&lt;/td&gt;&lt;/tr&gt;&lt;tr&gt;&lt;td align=&quot;center&quot;&gt;43&lt;/td&gt;&lt;td align=&quot;center&quot;&gt;48&lt;/td&gt;&lt;/tr&gt;&lt;/tbody&gt;&lt;/table&gt;" style="text;html=1;strokeColor=#666666;fillColor=#f5f5f5;overflow=fill;rounded=0;shadow=1;fontSize=12;align=center;" vertex="1" parent="1">
          <mxGeometry x="1293" y="472" width="150" height="60" as="geometry" />
        </mxCell>
        <mxCell id="M4bygD5o0YZVXNEomFIM-9" style="edgeStyle=none;curved=1;html=1;startSize=10;endArrow=classic;endFill=1;endSize=10;strokeWidth=1;fontSize=12;entryX=0;entryY=0;entryDx=0;entryDy=0;exitX=1;exitY=0.5;exitDx=0;exitDy=0;" edge="1" parent="1" source="M4bygD5o0YZVXNEomFIM-3" target="3cfceab9cabfe5b9-15">
          <mxGeometry relative="1" as="geometry">
            <mxPoint x="883" y="418" as="sourcePoint" />
            <mxPoint x="1035" y="340" as="targetPoint" />
          </mxGeometry>
        </mxCell>
        <mxCell id="M4bygD5o0YZVXNEomFIM-10" value="&lt;table border=&quot;1&quot; width=&quot;100%&quot; style=&quot;width: 100% ; height: 100% ; border-collapse: collapse&quot;&gt;&lt;tbody&gt;&lt;tr&gt;&lt;td colspan=&quot;2&quot; align=&quot;center&quot;&gt;Planiranje&lt;/td&gt;&lt;/tr&gt;&lt;tr&gt;&lt;td align=&quot;center&quot;&gt;0&lt;/td&gt;&lt;td align=&quot;center&quot;&gt;&lt;font style=&quot;font-size: 12px;&quot;&gt;3&lt;/font&gt;&lt;/td&gt;&lt;/tr&gt;&lt;tr&gt;&lt;td align=&quot;center&quot;&gt;0&lt;/td&gt;&lt;td align=&quot;center&quot;&gt;3&lt;/td&gt;&lt;/tr&gt;&lt;/tbody&gt;&lt;/table&gt;" style="text;html=1;strokeColor=#FF0000;fillColor=#f5f5f5;overflow=fill;rounded=0;shadow=1;fontSize=12;align=center;" vertex="1" parent="1">
          <mxGeometry x="130" y="472" width="150" height="60" as="geometry" />
        </mxCell>
        <mxCell id="M4bygD5o0YZVXNEomFIM-13" value="&lt;table border=&quot;1&quot; width=&quot;100%&quot; style=&quot;width: 100% ; height: 100% ; border-collapse: collapse&quot;&gt;&lt;tbody&gt;&lt;tr&gt;&lt;td colspan=&quot;2&quot; align=&quot;center&quot;&gt;&lt;font style=&quot;font-size: 12px;&quot;&gt;GitHub&lt;/font&gt;&lt;/td&gt;&lt;/tr&gt;&lt;tr&gt;&lt;td align=&quot;center&quot;&gt;3&lt;/td&gt;&lt;td align=&quot;center&quot;&gt;5&lt;/td&gt;&lt;/tr&gt;&lt;tr&gt;&lt;td align=&quot;center&quot;&gt;4&lt;/td&gt;&lt;td align=&quot;center&quot;&gt;6&lt;/td&gt;&lt;/tr&gt;&lt;/tbody&gt;&lt;/table&gt;" style="text;html=1;strokeColor=#FF0000;fillColor=#f5f5f5;overflow=fill;rounded=0;shadow=1;fontSize=12;align=center;" vertex="1" parent="1">
          <mxGeometry x="400" y="560" width="150" height="60" as="geometry" />
        </mxCell>
        <mxCell id="M4bygD5o0YZVXNEomFIM-14" style="edgeStyle=none;curved=1;html=1;startSize=10;endArrow=classic;endFill=1;endSize=10;strokeWidth=1;fontSize=12;entryX=0;entryY=0.5;entryDx=0;entryDy=0;exitX=1;exitY=0.5;exitDx=0;exitDy=0;" edge="1" parent="1" source="M4bygD5o0YZVXNEomFIM-10" target="30e23a8a0b95c500-1">
          <mxGeometry relative="1" as="geometry">
            <mxPoint x="300" y="480" as="sourcePoint" />
            <mxPoint x="473" y="410" as="targetPoint" />
          </mxGeometry>
        </mxCell>
        <mxCell id="M4bygD5o0YZVXNEomFIM-15" style="edgeStyle=none;curved=1;html=1;startSize=10;endArrow=classic;endFill=1;endSize=10;strokeWidth=1;fontSize=12;entryX=0;entryY=0.5;entryDx=0;entryDy=0;exitX=1;exitY=0.75;exitDx=0;exitDy=0;" edge="1" parent="1" source="M4bygD5o0YZVXNEomFIM-10" target="M4bygD5o0YZVXNEomFIM-13">
          <mxGeometry relative="1" as="geometry">
            <mxPoint x="280" y="572" as="sourcePoint" />
            <mxPoint x="400" y="550" as="targetPoint" />
          </mxGeometry>
        </mxCell>
        <mxCell id="M4bygD5o0YZVXNEomFIM-16" style="edgeStyle=none;curved=1;html=1;startSize=10;endArrow=classic;endFill=1;endSize=10;strokeWidth=1;fontSize=12;entryX=0;entryY=0.5;entryDx=0;entryDy=0;exitX=1;exitY=0.75;exitDx=0;exitDy=0;" edge="1" parent="1" source="M4bygD5o0YZVXNEomFIM-13" target="3cfceab9cabfe5b9-11">
          <mxGeometry relative="1" as="geometry">
            <mxPoint x="536" y="622" as="sourcePoint" />
            <mxPoint x="737" y="722" as="targetPoint" />
          </mxGeometry>
        </mxCell>
        <mxCell id="M4bygD5o0YZVXNEomFIM-17" style="edgeStyle=none;curved=1;html=1;startSize=10;endArrow=classic;endFill=1;endSize=10;strokeWidth=1;fontSize=12;entryX=0;entryY=0.75;entryDx=0;entryDy=0;exitX=1.01;exitY=0.391;exitDx=0;exitDy=0;exitPerimeter=0;" edge="1" parent="1" source="M4bygD5o0YZVXNEomFIM-13" target="3cfceab9cabfe5b9-10">
          <mxGeometry relative="1" as="geometry">
            <mxPoint x="550" y="592" as="sourcePoint" />
            <mxPoint x="733" y="614" as="targetPoint" />
          </mxGeometry>
        </mxCell>
        <mxCell id="M4bygD5o0YZVXNEomFIM-18" style="edgeStyle=none;curved=1;html=1;startSize=10;endArrow=classic;endFill=1;endSize=10;strokeWidth=1;fontSize=12;entryX=0;entryY=0.75;entryDx=0;entryDy=0;exitX=1.004;exitY=0.118;exitDx=0;exitDy=0;exitPerimeter=0;" edge="1" parent="1" source="M4bygD5o0YZVXNEomFIM-13" target="M4bygD5o0YZVXNEomFIM-3">
          <mxGeometry relative="1" as="geometry">
            <mxPoint x="550" y="560" as="sourcePoint" />
            <mxPoint x="743" y="472" as="targetPoint" />
          </mxGeometry>
        </mxCell>
        <mxCell id="M4bygD5o0YZVXNEomFIM-19" value="" style="shape=table;startSize=0;container=1;collapsible=0;childLayout=tableLayout;fontSize=16;" vertex="1" parent="1">
          <mxGeometry x="-370" y="330" width="440" height="400" as="geometry" />
        </mxCell>
        <mxCell id="M4bygD5o0YZVXNEomFIM-20" value="" style="shape=tableRow;horizontal=0;startSize=0;swimlaneHead=0;swimlaneBody=0;strokeColor=inherit;top=0;left=0;bottom=0;right=0;collapsible=0;dropTarget=0;fillColor=none;points=[[0,0.5],[1,0.5]];portConstraint=eastwest;fontSize=16;" vertex="1" parent="M4bygD5o0YZVXNEomFIM-19">
          <mxGeometry width="440" height="50" as="geometry" />
        </mxCell>
        <mxCell id="M4bygD5o0YZVXNEomFIM-21" value="Planiranje (A)&lt;span style=&quot;white-space: pre;&quot;&gt;&#x9;&lt;/span&gt;" style="shape=partialRectangle;html=1;whiteSpace=wrap;connectable=0;strokeColor=inherit;overflow=hidden;fillColor=none;top=0;left=0;bottom=0;right=0;pointerEvents=1;fontSize=16;" vertex="1" parent="M4bygD5o0YZVXNEomFIM-20">
          <mxGeometry width="160" height="50" as="geometry">
            <mxRectangle width="160" height="50" as="alternateBounds" />
          </mxGeometry>
        </mxCell>
        <mxCell id="M4bygD5o0YZVXNEomFIM-22" value="3" style="shape=partialRectangle;html=1;whiteSpace=wrap;connectable=0;strokeColor=inherit;overflow=hidden;fillColor=none;top=0;left=0;bottom=0;right=0;pointerEvents=1;fontSize=16;" vertex="1" parent="M4bygD5o0YZVXNEomFIM-20">
          <mxGeometry x="160" width="130" height="50" as="geometry">
            <mxRectangle width="130" height="50" as="alternateBounds" />
          </mxGeometry>
        </mxCell>
        <mxCell id="M4bygD5o0YZVXNEomFIM-23" value="" style="shape=partialRectangle;html=1;whiteSpace=wrap;connectable=0;strokeColor=inherit;overflow=hidden;fillColor=none;top=0;left=0;bottom=0;right=0;pointerEvents=1;fontSize=16;" vertex="1" parent="M4bygD5o0YZVXNEomFIM-20">
          <mxGeometry x="290" width="150" height="50" as="geometry">
            <mxRectangle width="150" height="50" as="alternateBounds" />
          </mxGeometry>
        </mxCell>
        <mxCell id="M4bygD5o0YZVXNEomFIM-24" value="" style="shape=tableRow;horizontal=0;startSize=0;swimlaneHead=0;swimlaneBody=0;strokeColor=inherit;top=0;left=0;bottom=0;right=0;collapsible=0;dropTarget=0;fillColor=none;points=[[0,0.5],[1,0.5]];portConstraint=eastwest;fontSize=16;" vertex="1" parent="M4bygD5o0YZVXNEomFIM-19">
          <mxGeometry y="50" width="440" height="50" as="geometry" />
        </mxCell>
        <mxCell id="M4bygD5o0YZVXNEomFIM-25" value="Dokumentacija (B)" style="shape=partialRectangle;html=1;whiteSpace=wrap;connectable=0;strokeColor=inherit;overflow=hidden;fillColor=none;top=0;left=0;bottom=0;right=0;pointerEvents=1;fontSize=16;" vertex="1" parent="M4bygD5o0YZVXNEomFIM-24">
          <mxGeometry width="160" height="50" as="geometry">
            <mxRectangle width="160" height="50" as="alternateBounds" />
          </mxGeometry>
        </mxCell>
        <mxCell id="M4bygD5o0YZVXNEomFIM-26" value="3" style="shape=partialRectangle;html=1;whiteSpace=wrap;connectable=0;strokeColor=inherit;overflow=hidden;fillColor=none;top=0;left=0;bottom=0;right=0;pointerEvents=1;fontSize=16;" vertex="1" parent="M4bygD5o0YZVXNEomFIM-24">
          <mxGeometry x="160" width="130" height="50" as="geometry">
            <mxRectangle width="130" height="50" as="alternateBounds" />
          </mxGeometry>
        </mxCell>
        <mxCell id="M4bygD5o0YZVXNEomFIM-27" value="A" style="shape=partialRectangle;html=1;whiteSpace=wrap;connectable=0;strokeColor=inherit;overflow=hidden;fillColor=none;top=0;left=0;bottom=0;right=0;pointerEvents=1;fontSize=16;" vertex="1" parent="M4bygD5o0YZVXNEomFIM-24">
          <mxGeometry x="290" width="150" height="50" as="geometry">
            <mxRectangle width="150" height="50" as="alternateBounds" />
          </mxGeometry>
        </mxCell>
        <mxCell id="M4bygD5o0YZVXNEomFIM-28" value="" style="shape=tableRow;horizontal=0;startSize=0;swimlaneHead=0;swimlaneBody=0;strokeColor=inherit;top=0;left=0;bottom=0;right=0;collapsible=0;dropTarget=0;fillColor=none;points=[[0,0.5],[1,0.5]];portConstraint=eastwest;fontSize=16;" vertex="1" parent="M4bygD5o0YZVXNEomFIM-19">
          <mxGeometry y="100" width="440" height="50" as="geometry" />
        </mxCell>
        <mxCell id="M4bygD5o0YZVXNEomFIM-29" value="GitHub (C)" style="shape=partialRectangle;html=1;whiteSpace=wrap;connectable=0;strokeColor=inherit;overflow=hidden;fillColor=none;top=0;left=0;bottom=0;right=0;pointerEvents=1;fontSize=16;" vertex="1" parent="M4bygD5o0YZVXNEomFIM-28">
          <mxGeometry width="160" height="50" as="geometry">
            <mxRectangle width="160" height="50" as="alternateBounds" />
          </mxGeometry>
        </mxCell>
        <mxCell id="M4bygD5o0YZVXNEomFIM-30" value="2" style="shape=partialRectangle;html=1;whiteSpace=wrap;connectable=0;strokeColor=inherit;overflow=hidden;fillColor=none;top=0;left=0;bottom=0;right=0;pointerEvents=1;fontSize=16;" vertex="1" parent="M4bygD5o0YZVXNEomFIM-28">
          <mxGeometry x="160" width="130" height="50" as="geometry">
            <mxRectangle width="130" height="50" as="alternateBounds" />
          </mxGeometry>
        </mxCell>
        <mxCell id="M4bygD5o0YZVXNEomFIM-31" value="A" style="shape=partialRectangle;html=1;whiteSpace=wrap;connectable=0;strokeColor=inherit;overflow=hidden;fillColor=none;top=0;left=0;bottom=0;right=0;pointerEvents=1;fontSize=16;" vertex="1" parent="M4bygD5o0YZVXNEomFIM-28">
          <mxGeometry x="290" width="150" height="50" as="geometry">
            <mxRectangle width="150" height="50" as="alternateBounds" />
          </mxGeometry>
        </mxCell>
        <mxCell id="M4bygD5o0YZVXNEomFIM-34" style="shape=tableRow;horizontal=0;startSize=0;swimlaneHead=0;swimlaneBody=0;strokeColor=inherit;top=0;left=0;bottom=0;right=0;collapsible=0;dropTarget=0;fillColor=none;points=[[0,0.5],[1,0.5]];portConstraint=eastwest;fontSize=16;" vertex="1" parent="M4bygD5o0YZVXNEomFIM-19">
          <mxGeometry y="150" width="440" height="50" as="geometry" />
        </mxCell>
        <mxCell id="M4bygD5o0YZVXNEomFIM-35" value="&lt;font style=&quot;font-size: 12px&quot;&gt;UI/UX Razvoj&lt;/font&gt; (D)" style="shape=partialRectangle;html=1;whiteSpace=wrap;connectable=0;strokeColor=inherit;overflow=hidden;fillColor=none;top=0;left=0;bottom=0;right=0;pointerEvents=1;fontSize=16;" vertex="1" parent="M4bygD5o0YZVXNEomFIM-34">
          <mxGeometry width="160" height="50" as="geometry">
            <mxRectangle width="160" height="50" as="alternateBounds" />
          </mxGeometry>
        </mxCell>
        <mxCell id="M4bygD5o0YZVXNEomFIM-36" value="30" style="shape=partialRectangle;html=1;whiteSpace=wrap;connectable=0;strokeColor=inherit;overflow=hidden;fillColor=none;top=0;left=0;bottom=0;right=0;pointerEvents=1;fontSize=16;" vertex="1" parent="M4bygD5o0YZVXNEomFIM-34">
          <mxGeometry x="160" width="130" height="50" as="geometry">
            <mxRectangle width="130" height="50" as="alternateBounds" />
          </mxGeometry>
        </mxCell>
        <mxCell id="M4bygD5o0YZVXNEomFIM-37" value="B, C" style="shape=partialRectangle;html=1;whiteSpace=wrap;connectable=0;strokeColor=inherit;overflow=hidden;fillColor=none;top=0;left=0;bottom=0;right=0;pointerEvents=1;fontSize=16;" vertex="1" parent="M4bygD5o0YZVXNEomFIM-34">
          <mxGeometry x="290" width="150" height="50" as="geometry">
            <mxRectangle width="150" height="50" as="alternateBounds" />
          </mxGeometry>
        </mxCell>
        <mxCell id="M4bygD5o0YZVXNEomFIM-38" style="shape=tableRow;horizontal=0;startSize=0;swimlaneHead=0;swimlaneBody=0;strokeColor=inherit;top=0;left=0;bottom=0;right=0;collapsible=0;dropTarget=0;fillColor=none;points=[[0,0.5],[1,0.5]];portConstraint=eastwest;fontSize=16;" vertex="1" parent="M4bygD5o0YZVXNEomFIM-19">
          <mxGeometry y="200" width="440" height="50" as="geometry" />
        </mxCell>
        <mxCell id="M4bygD5o0YZVXNEomFIM-39" value="Bluetooth funkcionalnost (E)" style="shape=partialRectangle;html=1;whiteSpace=wrap;connectable=0;strokeColor=inherit;overflow=hidden;fillColor=none;top=0;left=0;bottom=0;right=0;pointerEvents=1;fontSize=16;" vertex="1" parent="M4bygD5o0YZVXNEomFIM-38">
          <mxGeometry width="160" height="50" as="geometry">
            <mxRectangle width="160" height="50" as="alternateBounds" />
          </mxGeometry>
        </mxCell>
        <mxCell id="M4bygD5o0YZVXNEomFIM-40" value="24" style="shape=partialRectangle;html=1;whiteSpace=wrap;connectable=0;strokeColor=inherit;overflow=hidden;fillColor=none;top=0;left=0;bottom=0;right=0;pointerEvents=1;fontSize=16;" vertex="1" parent="M4bygD5o0YZVXNEomFIM-38">
          <mxGeometry x="160" width="130" height="50" as="geometry">
            <mxRectangle width="130" height="50" as="alternateBounds" />
          </mxGeometry>
        </mxCell>
        <mxCell id="M4bygD5o0YZVXNEomFIM-41" value="B, C" style="shape=partialRectangle;html=1;whiteSpace=wrap;connectable=0;strokeColor=inherit;overflow=hidden;fillColor=none;top=0;left=0;bottom=0;right=0;pointerEvents=1;fontSize=16;" vertex="1" parent="M4bygD5o0YZVXNEomFIM-38">
          <mxGeometry x="290" width="150" height="50" as="geometry">
            <mxRectangle width="150" height="50" as="alternateBounds" />
          </mxGeometry>
        </mxCell>
        <mxCell id="M4bygD5o0YZVXNEomFIM-76" style="shape=tableRow;horizontal=0;startSize=0;swimlaneHead=0;swimlaneBody=0;strokeColor=inherit;top=0;left=0;bottom=0;right=0;collapsible=0;dropTarget=0;fillColor=none;points=[[0,0.5],[1,0.5]];portConstraint=eastwest;fontSize=16;" vertex="1" parent="M4bygD5o0YZVXNEomFIM-19">
          <mxGeometry y="250" width="440" height="50" as="geometry" />
        </mxCell>
        <mxCell id="M4bygD5o0YZVXNEomFIM-77" value="Backend logika (F)" style="shape=partialRectangle;html=1;whiteSpace=wrap;connectable=0;strokeColor=inherit;overflow=hidden;fillColor=none;top=0;left=0;bottom=0;right=0;pointerEvents=1;fontSize=16;" vertex="1" parent="M4bygD5o0YZVXNEomFIM-76">
          <mxGeometry width="160" height="50" as="geometry">
            <mxRectangle width="160" height="50" as="alternateBounds" />
          </mxGeometry>
        </mxCell>
        <mxCell id="M4bygD5o0YZVXNEomFIM-78" value="28" style="shape=partialRectangle;html=1;whiteSpace=wrap;connectable=0;strokeColor=inherit;overflow=hidden;fillColor=none;top=0;left=0;bottom=0;right=0;pointerEvents=1;fontSize=16;" vertex="1" parent="M4bygD5o0YZVXNEomFIM-76">
          <mxGeometry x="160" width="130" height="50" as="geometry">
            <mxRectangle width="130" height="50" as="alternateBounds" />
          </mxGeometry>
        </mxCell>
        <mxCell id="M4bygD5o0YZVXNEomFIM-79" value="B, C" style="shape=partialRectangle;html=1;whiteSpace=wrap;connectable=0;strokeColor=inherit;overflow=hidden;fillColor=none;top=0;left=0;bottom=0;right=0;pointerEvents=1;fontSize=16;" vertex="1" parent="M4bygD5o0YZVXNEomFIM-76">
          <mxGeometry x="290" width="150" height="50" as="geometry">
            <mxRectangle width="150" height="50" as="alternateBounds" />
          </mxGeometry>
        </mxCell>
        <mxCell id="M4bygD5o0YZVXNEomFIM-80" style="shape=tableRow;horizontal=0;startSize=0;swimlaneHead=0;swimlaneBody=0;strokeColor=inherit;top=0;left=0;bottom=0;right=0;collapsible=0;dropTarget=0;fillColor=none;points=[[0,0.5],[1,0.5]];portConstraint=eastwest;fontSize=16;" vertex="1" parent="M4bygD5o0YZVXNEomFIM-19">
          <mxGeometry y="300" width="440" height="50" as="geometry" />
        </mxCell>
        <mxCell id="M4bygD5o0YZVXNEomFIM-81" value="Testiranje (G)" style="shape=partialRectangle;html=1;whiteSpace=wrap;connectable=0;strokeColor=inherit;overflow=hidden;fillColor=none;top=0;left=0;bottom=0;right=0;pointerEvents=1;fontSize=16;" vertex="1" parent="M4bygD5o0YZVXNEomFIM-80">
          <mxGeometry width="160" height="50" as="geometry">
            <mxRectangle width="160" height="50" as="alternateBounds" />
          </mxGeometry>
        </mxCell>
        <mxCell id="M4bygD5o0YZVXNEomFIM-82" value="7" style="shape=partialRectangle;html=1;whiteSpace=wrap;connectable=0;strokeColor=inherit;overflow=hidden;fillColor=none;top=0;left=0;bottom=0;right=0;pointerEvents=1;fontSize=16;" vertex="1" parent="M4bygD5o0YZVXNEomFIM-80">
          <mxGeometry x="160" width="130" height="50" as="geometry">
            <mxRectangle width="130" height="50" as="alternateBounds" />
          </mxGeometry>
        </mxCell>
        <mxCell id="M4bygD5o0YZVXNEomFIM-83" value="D, E, F" style="shape=partialRectangle;html=1;whiteSpace=wrap;connectable=0;strokeColor=inherit;overflow=hidden;fillColor=none;top=0;left=0;bottom=0;right=0;pointerEvents=1;fontSize=16;" vertex="1" parent="M4bygD5o0YZVXNEomFIM-80">
          <mxGeometry x="290" width="150" height="50" as="geometry">
            <mxRectangle width="150" height="50" as="alternateBounds" />
          </mxGeometry>
        </mxCell>
        <mxCell id="M4bygD5o0YZVXNEomFIM-84" style="shape=tableRow;horizontal=0;startSize=0;swimlaneHead=0;swimlaneBody=0;strokeColor=inherit;top=0;left=0;bottom=0;right=0;collapsible=0;dropTarget=0;fillColor=none;points=[[0,0.5],[1,0.5]];portConstraint=eastwest;fontSize=16;" vertex="1" parent="M4bygD5o0YZVXNEomFIM-19">
          <mxGeometry y="350" width="440" height="50" as="geometry" />
        </mxCell>
        <mxCell id="M4bygD5o0YZVXNEomFIM-85" value="Objavljivanje (H)" style="shape=partialRectangle;html=1;whiteSpace=wrap;connectable=0;strokeColor=inherit;overflow=hidden;fillColor=none;top=0;left=0;bottom=0;right=0;pointerEvents=1;fontSize=16;" vertex="1" parent="M4bygD5o0YZVXNEomFIM-84">
          <mxGeometry width="160" height="50" as="geometry">
            <mxRectangle width="160" height="50" as="alternateBounds" />
          </mxGeometry>
        </mxCell>
        <mxCell id="M4bygD5o0YZVXNEomFIM-86" value="5" style="shape=partialRectangle;html=1;whiteSpace=wrap;connectable=0;strokeColor=inherit;overflow=hidden;fillColor=none;top=0;left=0;bottom=0;right=0;pointerEvents=1;fontSize=16;" vertex="1" parent="M4bygD5o0YZVXNEomFIM-84">
          <mxGeometry x="160" width="130" height="50" as="geometry">
            <mxRectangle width="130" height="50" as="alternateBounds" />
          </mxGeometry>
        </mxCell>
        <mxCell id="M4bygD5o0YZVXNEomFIM-87" value="G" style="shape=partialRectangle;html=1;whiteSpace=wrap;connectable=0;strokeColor=inherit;overflow=hidden;fillColor=none;top=0;left=0;bottom=0;right=0;pointerEvents=1;fontSize=16;" vertex="1" parent="M4bygD5o0YZVXNEomFIM-84">
          <mxGeometry x="290" width="150" height="50" as="geometry">
            <mxRectangle width="150" height="50" as="alternateBounds" />
          </mxGeometry>
        </mxCell>
        <mxCell id="M4bygD5o0YZVXNEomFIM-92" value="" style="verticalLabelPosition=bottom;verticalAlign=top;html=1;shape=mxgraph.basic.4_point_star_2;dx=0.8;" vertex="1" parent="1">
          <mxGeometry x="1440" y="430" width="30" height="30" as="geometry" />
        </mxCell>
        <mxCell id="M4bygD5o0YZVXNEomFIM-94" value="" style="verticalLabelPosition=bottom;verticalAlign=top;html=1;shape=mxgraph.basic.4_point_star_2;dx=0.8;" vertex="1" parent="1">
          <mxGeometry x="1170" y="430" width="30" height="30" as="geometry" />
        </mxCell>
        <mxCell id="M4bygD5o0YZVXNEomFIM-95" value="" style="verticalLabelPosition=bottom;verticalAlign=top;html=1;shape=mxgraph.basic.4_point_star_2;dx=0.8;" vertex="1" parent="1">
          <mxGeometry x="893" y="260" width="30" height="30" as="geometry" />
        </mxCell>
        <mxCell id="M4bygD5o0YZVXNEomFIM-100" value="" style="verticalLabelPosition=bottom;verticalAlign=top;html=1;shape=mxgraph.basic.4_point_star_2;dx=0.8;" vertex="1" parent="1">
          <mxGeometry x="520" y="410" width="30" height="30" as="geometry" />
        </mxCell>
        <mxCell id="M4bygD5o0YZVXNEomFIM-101" value="" style="verticalLabelPosition=bottom;verticalAlign=top;html=1;shape=mxgraph.basic.4_point_star_2;dx=0.8;" vertex="1" parent="1">
          <mxGeometry x="270" y="440" width="30" height="30" as="geometry" />
        </mxCell>
      </root>
    </mxGraphModel>
  </diagram>
</mxfile>
